<svg viewBox="0 0 24 24" fill="none" xmlns="http://www.w3.org/2000/svg">
  <path fill-rule="evenodd" clip-rule="evenodd"
    d="M11.39 6.01107C9.75125 6.11182 8.02827 6.68106 6.29773 7.69347C5.33081 8.25914 4.41515 8.93008 3.51441 9.73293C3.17174 10.0384 2.59423 10.6075 2.44233 10.7895C1.83075 11.5222 1.85592 12.5719 2.50194 13.2747C2.70425 13.4948 3.18589 13.9664 3.47442 14.2268C5.65637 16.1962 8.1515 17.5041 10.4447 17.8805C10.9849 17.9692 11.3852 18 11.9963 18C12.6076 18 13.0089 17.9691 13.5479 17.8805C15.7313 17.5215 18.0943 16.3228 20.2103 14.5008C20.6635 14.1106 21.2878 13.5111 21.5268 13.2365C21.7873 12.9372 21.939 12.5894 21.9874 12.1801C22.0002 12.0723 22.0045 11.8838 21.9945 11.8742C21.9897 11.8696 21.9859 11.8492 21.9859 11.8289C21.9859 11.7803 21.9592 11.6237 21.9345 11.5271C21.8705 11.2767 21.7376 11.0162 21.5659 10.8046C21.3807 10.5764 20.6599 9.88185 20.1903 9.47918C18.7065 8.20682 17.0866 7.23052 15.4675 6.63282C15.2307 6.54544 14.8171 6.41293 14.568 6.34469C13.8828 6.15696 13.251 6.05058 12.5842 6.01066C12.3435 5.99625 11.6271 5.99651 11.39 6.01107ZM11.6604 7.20223C10.8615 7.23819 10.1805 7.36195 9.38655 7.6155C7.79034 8.12525 6.13834 9.08717 4.62236 10.3896C4.21867 10.7364 3.53678 11.3927 3.39671 11.5693C3.34883 11.6297 3.30145 11.7218 3.27814 11.7998C3.25624 11.8732 3.24806 12.0359 3.2621 12.1195C3.27985 12.2252 3.32874 12.338 3.39304 12.4217C3.51856 12.5851 4.18032 13.2247 4.5983 13.5865C6.42638 15.1692 8.47215 16.2557 10.3407 16.6365C10.7275 16.7153 11.0708 16.7615 11.4605 16.7874C11.6479 16.7999 12.3416 16.7998 12.5322 16.7873C13.6889 16.7115 14.8355 16.3912 16.0673 15.7998C17.3196 15.1985 18.533 14.3703 19.6824 13.3322C19.9776 13.0656 20.5072 12.5426 20.5979 12.4281C20.7864 12.1901 20.7913 11.8411 20.6097 11.584C20.5662 11.5224 20.2828 11.2317 20.0263 10.9854C18.6977 9.70987 17.1524 8.66018 15.6354 8.00285C14.5701 7.5412 13.558 7.28181 12.5522 7.21259C12.4402 7.20488 11.7735 7.19713 11.6604 7.20223ZM11.7444 8.4046C11.0949 8.44683 10.4744 8.64818 9.93115 8.99303C8.71628 9.76423 8.07747 11.1328 8.28573 12.5182C8.38838 13.2011 8.70017 13.8514 9.17248 14.3677C9.51149 14.7383 9.90408 15.0261 10.3607 15.2387C10.8315 15.4578 11.288 15.5695 11.8184 15.5952C12.4469 15.6257 13.0589 15.5054 13.6319 15.2387C14.4713 14.8479 15.1296 14.1706 15.4767 13.3404C15.7341 12.725 15.808 12.0507 15.691 11.3839C15.6083 10.9123 15.4079 10.4264 15.1274 10.0173C14.8614 9.6294 14.5114 9.28734 14.1118 9.02456C13.4228 8.57148 12.5784 8.35037 11.7444 8.4046ZM11.7404 9.61115C11.2708 9.65724 10.8112 9.83785 10.4372 10.1232C10.3335 10.2023 10.1113 10.4179 10.0316 10.5167C9.75951 10.8542 9.59239 11.2282 9.52351 11.6538C9.50771 11.7515 9.5055 11.7941 9.50561 11.9996C9.50572 12.2042 9.50802 12.248 9.52376 12.3453C9.59328 12.7751 9.77217 13.1692 10.0486 13.5017C10.132 13.602 10.3228 13.7855 10.4286 13.8672C10.7314 14.1008 11.1083 14.2723 11.4832 14.3472C11.6693 14.3844 11.7546 14.3921 11.9883 14.3925C12.2204 14.3929 12.2974 14.3868 12.4762 14.3535C12.8638 14.2813 13.2523 14.1076 13.564 13.8672C13.6698 13.7855 13.8607 13.602 13.944 13.5017C14.1764 13.2222 14.3524 12.8727 14.4316 12.5333C14.479 12.3302 14.487 12.2535 14.487 11.9996C14.487 11.7423 14.4767 11.6464 14.428 11.4501C14.3435 11.1099 14.1729 10.7717 13.9499 10.5024C13.8714 10.4075 13.6541 10.1986 13.5557 10.1235C13.1797 9.83627 12.7163 9.65586 12.2374 9.61031C12.1402 9.60106 11.838 9.60157 11.7404 9.61115ZM2.00198 11.9957C2.00199 12.0591 2.00323 12.084 2.00474 12.0511C2.00624 12.0182 2.00623 11.9663 2.00472 11.9358C2.0032 11.9054 2.00198 11.9324 2.00198 11.9957Z"
    fill="currentColor" />
</svg>