<svg viewBox="0 0 24 24" fill="none" xmlns="http://www.w3.org/2000/svg">
  <path fill-rule="evenodd" clip-rule="evenodd"
    d="M19.8523 3.00417C19.7898 3.01338 19.6882 3.04903 19.637 3.07972C19.615 3.09293 19.5736 3.12423 19.545 3.1493C19.5164 3.17437 18.7337 3.9577 17.8055 4.89006L16.1181 6.58525L16.0814 6.56582C16.0612 6.55514 15.9763 6.51546 15.8927 6.47764C14.8753 6.01749 13.7889 5.73603 12.6804 5.64541C12.1351 5.60083 11.5538 5.60515 11.0649 5.65741C9.36384 5.83922 7.53764 6.58751 5.74769 7.83615C4.98207 8.37023 4.27892 8.95201 3.55148 9.65323C3.2256 9.96738 2.5815 10.6569 2.4369 10.8464C2.02727 11.3832 1.89408 12.1139 2.08678 12.7672C2.1573 13.0063 2.28615 13.262 2.43334 13.4549C2.50482 13.5487 2.72421 13.7986 2.96838 14.0644C3.83521 15.0081 4.77149 15.8232 5.85502 16.5775L6.04236 16.7079L6.01826 16.7294C5.92501 16.8126 3.83643 18.9222 3.80952 18.9603C3.7293 19.0741 3.69406 19.191 3.69343 19.3454C3.6928 19.4994 3.72982 19.6188 3.81441 19.7357C3.953 19.9272 4.17083 20.0246 4.39379 19.9947C4.53069 19.9763 4.63665 19.9239 4.7448 19.8208C4.77765 19.7895 5.37632 19.1896 6.07518 18.4876C7.15725 17.4007 7.35466 17.2059 7.40521 17.1752C7.48281 17.128 7.56209 17.0489 7.61187 16.9688C7.64622 16.9136 7.80284 16.7528 8.71939 15.8322C9.46661 15.0816 9.80388 14.7483 9.8435 14.7211C9.91062 14.6751 9.97738 14.6078 10.0161 14.5471C10.058 14.4814 14.3461 10.1761 14.4204 10.1251C14.4797 10.0843 14.5791 9.98181 14.6054 9.93426C14.6137 9.91915 15.067 9.45921 15.6127 8.91215C16.1583 8.3651 16.6444 7.87669 16.6928 7.8268C16.7412 7.77691 17.5926 6.92081 18.5849 5.92435C19.5772 4.9279 20.4056 4.09286 20.4257 4.06871C20.4732 4.01174 20.5237 3.91187 20.5449 3.83285C20.5799 3.70238 20.5727 3.53429 20.5269 3.41565C20.4516 3.22082 20.2789 3.06139 20.0949 3.01706C20.0297 3.00133 19.9135 2.99516 19.8523 3.00417ZM11.6683 6.92677C10.2792 6.97577 8.75809 7.48656 7.21342 8.42265C6.07656 9.1116 4.95723 10.0192 3.97152 11.0512C3.71861 11.316 3.44916 11.6163 3.39315 11.6958C3.23546 11.9196 3.20822 12.2418 3.32566 12.4941C3.36714 12.5832 3.41111 12.6411 3.60348 12.8601C4.37143 13.7341 5.25112 14.5419 6.17056 15.2172C6.39642 15.3832 6.74084 15.6219 6.91876 15.7359L6.96972 15.7686L6.99025 15.7492C7.00987 15.7308 8.58181 14.1554 8.65541 14.0805L8.69086 14.0444L8.63289 13.9176C8.45343 13.5252 8.34138 13.1045 8.28632 12.6165C8.26995 12.4714 8.27251 11.9283 8.29027 11.7796C8.36871 11.1225 8.54888 10.5858 8.86622 10.0638C9.02402 9.80428 9.17737 9.605 9.39145 9.38126C9.7076 9.05087 10.003 8.82807 10.3957 8.62371C11.4974 8.05038 12.7788 8.06142 13.8705 8.65363L13.9928 8.71998L14.5107 8.20037C14.7955 7.91458 15.0531 7.65553 15.0831 7.62468L15.1376 7.5686L15.0711 7.5412C14.5969 7.34579 13.9576 7.15971 13.4308 7.06372C12.8438 6.95676 12.2113 6.90761 11.6683 6.92677ZM18.3249 8.14022C18.0871 8.19341 17.8948 8.39671 17.8456 8.64697C17.8067 8.84441 17.8618 9.06123 17.9892 9.21241C18.0097 9.23666 18.1134 9.32488 18.2197 9.40846C18.8912 9.93647 19.4239 10.4184 19.9894 11.0094C20.259 11.2913 20.5503 11.6147 20.6072 11.6954C20.766 11.9208 20.7928 12.2453 20.6733 12.4959C20.6298 12.5869 20.598 12.6297 20.4391 12.8104C20.1488 13.1408 19.7189 13.5842 19.3808 13.902C17.2492 15.9062 14.8736 17.145 12.7709 17.3488C12.5094 17.3741 12.3275 17.3828 12.0601 17.3828C11.2379 17.3828 10.5608 17.2855 9.82009 17.0606C9.60551 16.9955 9.55461 16.9858 9.46054 16.9919C9.24326 17.0061 9.03216 17.1522 8.94059 17.3519C8.89367 17.4541 8.87676 17.5318 8.87648 17.6465C8.87628 17.7262 8.87995 17.7604 8.8942 17.8122C8.95692 18.04 9.10566 18.1994 9.32404 18.2726C9.98015 18.4927 10.7515 18.6363 11.5163 18.6806C11.7369 18.6934 12.3707 18.6935 12.5684 18.6808C13.8467 18.5986 15.1196 18.2316 16.4527 17.5609C18.2062 16.6788 19.9804 15.2751 21.4198 13.6312C21.5982 13.4275 21.6906 13.2926 21.7839 13.0995C21.9202 12.8177 21.987 12.546 21.9986 12.2273C22.0166 11.7302 21.861 11.236 21.5637 10.8464C21.4513 10.6991 21.0773 10.2891 20.7131 9.91426C20.2149 9.40127 19.6008 8.85347 18.9887 8.37598C18.7757 8.20983 18.7096 8.16892 18.6117 8.14272C18.5372 8.1228 18.4078 8.12167 18.3249 8.14022ZM11.9763 9.51688C11.5562 9.53523 11.1335 9.66984 10.7653 9.90248C10.4746 10.0861 10.1987 10.3538 10.0006 10.6442C9.58287 11.2569 9.42971 12.0236 9.57654 12.7674C9.60012 12.8868 9.64791 13.0644 9.65717 13.067C9.66333 13.0687 13.0113 9.70749 13.0153 9.69558C13.0213 9.67772 12.7914 9.60451 12.6084 9.566C12.3985 9.52183 12.2057 9.50685 11.9763 9.51688ZM15.0366 11.5044C14.9551 11.5212 14.93 11.5283 14.8872 11.5465C14.749 11.6052 14.6159 11.7408 14.5523 11.8877C14.5167 11.9696 14.5048 12.0448 14.4962 12.2391C14.4876 12.4343 14.4671 12.6 14.4328 12.7505C14.3475 13.1248 14.1938 13.4592 13.9657 13.7673C13.886 13.8748 13.6637 14.1097 13.5603 14.1957C13.2066 14.4895 12.7879 14.6777 12.3443 14.7421C12.2937 14.7494 12.1749 14.7592 12.0803 14.7639C11.9058 14.7725 11.8472 14.7817 11.7667 14.8132C11.63 14.8667 11.4774 15.0245 11.4203 15.1715C11.3714 15.2975 11.3627 15.4879 11.4002 15.6127C11.4638 15.8243 11.6369 16.0003 11.8363 16.0562C11.9368 16.0843 12.2041 16.0805 12.4603 16.0473C13.2892 15.9398 14.0496 15.5527 14.642 14.9368C15.193 14.3639 15.5577 13.6385 15.692 12.8483C15.7324 12.6109 15.7594 12.2671 15.7498 12.1143C15.7311 11.8175 15.5285 11.5711 15.255 11.5124C15.1993 11.5005 15.0774 11.496 15.0366 11.5044Z"
    fill="currentColor" />
</svg>